/* XPM */
static char * calculator_xpm[] = {
"32 32 118 2",
"  	c None",
". 	c #080808",
"+ 	c #090909",
"@ 	c #2B2B2B",
"# 	c #4C4C4C",
"$ 	c #717171",
"% 	c #848484",
"& 	c #1A1A1A",
"* 	c #5B5B5B",
"= 	c #4E4E4E",
"- 	c #474747",
"; 	c #444444",
"> 	c #5A5A5A",
", 	c #5C5C5C",
"' 	c #1D1D1D",
") 	c #5E5E5E",
"! 	c #4A4A4A",
"~ 	c #424242",
"{ 	c #414141",
"] 	c #3D3D3D",
"^ 	c #3A3A3A",
"/ 	c #464646",
"( 	c #434343",
"_ 	c #363636",
": 	c #1E1E1E",
"< 	c #191919",
"[ 	c #2D2D2D",
"} 	c #484848",
"| 	c #404040",
"1 	c #303030",
"2 	c #151515",
"3 	c #161616",
"4 	c #3F3F3F",
"5 	c #383838",
"6 	c #252727",
"7 	c #404142",
"8 	c #3B3C3D",
"9 	c #252627",
"0 	c #4D1E0A",
"a 	c #4B1D0A",
"b 	c #462011",
"c 	c #4A2415",
"d 	c #492414",
"e 	c #441E0E",
"f 	c #4C1E0A",
"g 	c #875329",
"h 	c #F3C167",
"i 	c #FFD572",
"j 	c #FFD471",
"k 	c #BF8745",
"l 	c #E0A356",
"m 	c #DA9F53",
"n 	c #B97F41",
"o 	c #D3974E",
"p 	c #B2773C",
"q 	c #CA8C48",
"r 	c #AA6F36",
"s 	c #C18240",
"t 	c #A36630",
"u 	c #B77638",
"v 	c #9C5E2A",
"w 	c #AE6C30",
"x 	c #B06D31",
"y 	c #B16D31",
"z 	c #955625",
"A 	c #A5612A",
"B 	c #AC652B",
"C 	c #70441F",
"D 	c #2E1E11",
"E 	c #81451D",
"F 	c #9F5925",
"G 	c #A15A25",
"H 	c #5D371B",
"I 	c #353A3D",
"J 	c #858585",
"K 	c #7D4921",
"L 	c #653214",
"M 	c #612F12",
"N 	c #633012",
"O 	c #211610",
"P 	c #3E3E3E",
"Q 	c #AB6F36",
"R 	c #C58541",
"S 	c #C68541",
"T 	c #CA8742",
"U 	c #37291B",
"V 	c #343435",
"W 	c #333333",
"X 	c #A46831",
"Y 	c #B97A3A",
"Z 	c #BC7B3B",
"` 	c #6E4B28",
" .	c #161A1E",
"..	c #2A2A2A",
"+.	c #A1642F",
"@.	c #B57437",
"#.	c #BE7939",
"$.	c #6A4726",
"%.	c #342619",
"&.	c #9E612C",
"*.	c #B16F33",
"=.	c #B37133",
"-.	c #B57234",
";.	c #9B5C29",
">.	c #AD6A30",
",.	c #975927",
"'.	c #A8652D",
").	c #955525",
"!.	c #925222",
"~.	c #A15C27",
"{.	c #8F4F20",
"].	c #9E5924",
"^.	c #8B4B1E",
"/.	c #9C5522",
"(.	c #9B5522",
"_.	c #633214",
":.	c #8A4A1D",
"<.	c #8B4B1D",
"                                                                ",
"                            . + + .                             ",
"                        @ # $ % % $ # @                         ",
"                    & * * = - ; ; - = > , &                     ",
"                  ' ) ! ~ { ] ^ ^ ] { ~ ! ) '                   ",
"                & = / ( _ : <     < : _ ( / = &                 ",
"                [ } | 1 2             2 1 | } [                 ",
"              3 / 4 5 &                 & 5 4 / 3               ",
"              6 7 8 9                     9 8 7 6               ",
"    0 0 0 0 a b c d e f 0 0 0 0 0 0 0 0 f e d c b a 0 0 0 0     ",
"  g h i j j j j j j j j j j j j j j j j j j j j j j j j i h g   ",
"  k l m m m m m m m m m m m m m m m m m m m m m m m m m m l k   ",
"  n o o o o o o o o o o o o o o o o o o o o o o o o o o o o n   ",
"  p q q q q q q q q q q q q q q q q q q q q q q q q q q q q p   ",
"  r s s s s s s s s s s s s s s s s s s s s s s s s s s s s r   ",
"  t u u u u u u u u u u u u u u u u u u u u u u u u u u u u t   ",
"  v w w w w w w w w w w w w x y y x w w w w w w w w w w w w v   ",
"  z A A A A A A A A A A A B C D D C B A A A A A A A A A A A z   ",
"  E F F F F F F F F F F G H I J J I H G F F F F F F F F F F E   ",
"  K L M M M M M M M M M N O ( P P ( O N M M M M M M M M M L K   ",
"  Q R S S S S S S S S S T U V W W V U T S S S S S S S S S R Q   ",
"  X Y Y Y Y Y Y Y Y Y Y Z `  ..... .` Z Y Y Y Y Y Y Y Y Y Y X   ",
"  +.@.@.@.@.@.@.@.@.@.@.@.#.$.%.%.$.#.@.@.@.@.@.@.@.@.@.@.@.+.  ",
"  &.*.*.*.*.*.*.*.*.*.*.*.*.=.-.-.=.*.*.*.*.*.*.*.*.*.*.*.*.&.  ",
"  ;.>.>.>.>.>.>.>.>.>.>.>.>.>.>.>.>.>.>.>.>.>.>.>.>.>.>.>.>.;.  ",
"  ,.'.'.'.'.'.'.'.'.'.'.'.'.'.'.'.'.'.'.'.'.'.'.'.'.'.'.'.'.,.  ",
"  ).A A A A A A A A A A A A A A A A A A A A A A A A A A A A ).  ",
"  !.~.~.~.~.~.~.~.~.~.~.~.~.~.~.~.~.~.~.~.~.~.~.~.~.~.~.~.~.!.  ",
"  {.].].].].].].].].].].].].].].].].].].].].].].].].].].].].{.  ",
"  ^./.(.(.(.(.(.(.(.(.(.(.(.(.(.(.(.(.(.(.(.(.(.(.(.(.(.(./.^.  ",
"  _.:.<.<.<.<.<.<.<.<.<.<.<.<.<.<.<.<.<.<.<.<.<.<.<.<.<.<.:._.  ",
"                                                                "};
